<svg width="16" height="16" viewBox="0 0 16 16" fill="none" xmlns="http://www.w3.org/2000/svg">
<rect width="16" height="16" rx="3" fill="#F8F3E9"/>
<g filter="url(#filter0_i_2134_2)">
<path d="M8.76259 7.79667L8.20644 8.26182C8.14071 8.3168 8.13365 8.41532 8.19089 8.4791L8.51904 8.84475C8.57329 8.90521 8.57018 8.9977 8.51199 9.05437L7.69873 9.84632H9.18286C9.2304 9.84632 9.2758 9.82402 9.30245 9.78466C9.81383 9.02944 9.33732 8.20683 8.95883 7.80481C8.90666 7.7494 8.82097 7.74785 8.76259 7.79667Z" fill="#4F9A85"/>
</g>
<path d="M8.76259 7.79667L8.20644 8.26182C8.14071 8.3168 8.13365 8.41532 8.19089 8.4791L8.51904 8.84475C8.57329 8.90521 8.57018 8.9977 8.51199 9.05437L7.69873 9.84632H9.18286C9.2304 9.84632 9.2758 9.82402 9.30245 9.78466C9.81383 9.02944 9.33732 8.20683 8.95883 7.80481C8.90666 7.7494 8.82097 7.74785 8.76259 7.79667Z" stroke="#F8F3E9" stroke-width="0.15142"/>
<g filter="url(#filter1_i_2134_2)">
<path d="M8.61955 6.4273C8.43766 6.60723 8.10719 6.92209 7.94502 7.07614C7.89375 7.12484 7.89508 7.20667 7.94765 7.25398L8.52847 7.77672C8.57355 7.81729 8.6417 7.81827 8.68792 7.77901L9.14637 7.38964C9.193 7.35004 9.26183 7.35141 9.30683 7.39284L9.75053 7.8013C9.79736 7.84441 9.86958 7.84392 9.91582 7.80018L10.3096 7.42772C10.3567 7.3831 10.4307 7.3836 10.4772 7.42887L10.8509 7.79214C10.8994 7.83927 10.9771 7.83759 11.0234 7.78841L11.6146 7.16178C11.6599 7.11377 11.6584 7.03834 11.6113 6.99214L11.0223 6.41494C10.9758 6.36939 10.9017 6.36871 10.8543 6.41339L10.4723 6.7742C10.4276 6.81639 10.3584 6.81845 10.3113 6.77898L9.91369 6.44582C9.86772 6.4073 9.80048 6.40823 9.75558 6.44799L9.38125 6.77954C9.33661 6.81907 9.26984 6.82025 9.22385 6.7823L8.7841 6.41951C8.73547 6.37939 8.66437 6.38297 8.61955 6.4273Z" fill="#4F9A85"/>
</g>
<path d="M8.61955 6.4273C8.43766 6.60723 8.10719 6.92209 7.94502 7.07614C7.89375 7.12484 7.89508 7.20667 7.94765 7.25398L8.52847 7.77672C8.57355 7.81729 8.6417 7.81827 8.68792 7.77901L9.14637 7.38964C9.193 7.35004 9.26183 7.35141 9.30683 7.39284L9.75053 7.8013C9.79736 7.84441 9.86958 7.84392 9.91582 7.80018L10.3096 7.42772C10.3567 7.3831 10.4307 7.3836 10.4772 7.42887L10.8509 7.79214C10.8994 7.83927 10.9771 7.83759 11.0234 7.78841L11.6146 7.16178C11.6599 7.11377 11.6584 7.03834 11.6113 6.99214L11.0223 6.41494C10.9758 6.36939 10.9017 6.36871 10.8543 6.41339L10.4723 6.7742C10.4276 6.81639 10.3584 6.81845 10.3113 6.77898L9.91369 6.44582C9.86772 6.4073 9.80048 6.40823 9.75558 6.44799L9.38125 6.77954C9.33661 6.81907 9.26984 6.82025 9.22385 6.7823L8.7841 6.41951C8.73547 6.37939 8.66437 6.38297 8.61955 6.4273Z" stroke="#F8F3E9" stroke-width="0.15142"/>
<g filter="url(#filter2_i_2134_2)">
<path d="M5.21619 8.61985H3.73269C3.64859 8.61985 3.60963 8.51542 3.67319 8.46034L4.08506 8.10339C4.12161 8.07171 4.10854 8.01028 4.06472 7.98982C3.75387 7.84468 3.47607 7.46736 3.42858 7.31764C3.23171 6.69682 3.4626 5.66059 4.45823 5.59145C5.41906 5.52472 5.69775 6.27343 5.7711 6.80105C5.78655 6.91218 5.8783 6.99965 5.9905 6.99965H7.09294C7.21002 6.99965 7.30493 6.90474 7.30493 6.78767V6.22741C7.30493 6.09361 7.4134 5.98514 7.5472 5.98514H8.04687C8.18068 5.98514 8.28914 6.09361 8.28914 6.22741V7.18136C8.28914 7.71657 7.85527 8.15045 7.32006 8.15045H5.62417L5.28803 8.58461C5.27082 8.60684 5.2443 8.61985 5.21619 8.61985Z" fill="#4F9A85"/>
</g>
<path d="M5.21619 8.61985H3.73269C3.64859 8.61985 3.60963 8.51542 3.67319 8.46034L4.08506 8.10339C4.12161 8.07171 4.10854 8.01028 4.06472 7.98982C3.75387 7.84468 3.47607 7.46736 3.42858 7.31764C3.23171 6.69682 3.4626 5.66059 4.45823 5.59145C5.41906 5.52472 5.69775 6.27343 5.7711 6.80105C5.78655 6.91218 5.8783 6.99965 5.9905 6.99965H7.09294C7.21002 6.99965 7.30493 6.90474 7.30493 6.78767V6.22741C7.30493 6.09361 7.4134 5.98514 7.5472 5.98514H8.04687C8.18068 5.98514 8.28914 6.09361 8.28914 6.22741V7.18136C8.28914 7.71657 7.85527 8.15045 7.32006 8.15045H5.62417L5.28803 8.58461C5.27082 8.60684 5.2443 8.61985 5.21619 8.61985Z" stroke="#F8F3E9" stroke-width="0.15142"/>
<g filter="url(#filter3_i_2134_2)">
<rect x="9.26904" y="5.48547" width="0.726816" height="0.726816" rx="0.15142" transform="rotate(43.6635 9.26904 5.48547)" fill="#4F9A85"/>
</g>
<g filter="url(#filter4_i_2134_2)">
<rect x="6.58032" y="8.3927" width="0.726816" height="0.726816" rx="0.15142" transform="rotate(43.6635 6.58032 8.3927)" fill="#4F9A85"/>
</g>
<g filter="url(#filter5_i_2134_2)">
<rect x="7.42822" y="8.3927" width="0.726816" height="0.726816" rx="0.15142" transform="rotate(43.6635 7.42822 8.3927)" fill="#4F9A85"/>
</g>
<rect x="13.6062" y="9.6344" width="0.726816" height="0.726816" rx="0.15142" transform="rotate(43.6635 13.6062 9.6344)" fill="#4F9A85"/>
<path d="M4.77955 6.62673L5.00044 7.19262L4.39991 7.10097C4.13301 7.06023 4.0103 6.74585 4.17903 6.53507C4.34775 6.3243 4.68138 6.37522 4.77955 6.62673Z" fill="white" stroke="#4F9A85" stroke-width="0.264887"/>
<g filter="url(#filter6_i_2134_2)">
<path d="M1.32553 7.87048L0.741327 8.35159C0.631666 8.4419 0.695525 8.61989 0.837586 8.61989H1.94071C1.99069 8.61989 2.03803 8.59519 2.06438 8.55273C2.57534 7.72947 2.14871 6.89718 1.79712 6.49418C1.74569 6.43523 1.6571 6.4329 1.59763 6.48372L0.985505 7.00681C0.921694 7.06134 0.914415 7.15737 0.969277 7.22089L1.34386 7.65462C1.39943 7.71897 1.39115 7.81644 1.32553 7.87048Z" fill="#4F9A85"/>
<path d="M3.30765 5.40979H2.52026C2.43664 5.40979 2.36884 5.47758 2.36884 5.56121V8.46847C2.36884 8.5521 2.43664 8.61989 2.52026 8.61989H3.30765C3.39127 8.61989 3.45907 8.5521 3.45907 8.46847V5.56121C3.45907 5.47758 3.39127 5.40979 3.30765 5.40979Z" fill="#4F9A85"/>
</g>
<path d="M1.32553 7.87048L0.741327 8.35159C0.631666 8.4419 0.695525 8.61989 0.837586 8.61989H1.94071C1.99069 8.61989 2.03803 8.59519 2.06438 8.55273C2.57534 7.72947 2.14871 6.89718 1.79712 6.49418C1.74569 6.43523 1.6571 6.4329 1.59763 6.48372L0.985505 7.00681C0.921694 7.06134 0.914415 7.15737 0.969277 7.22089L1.34386 7.65462C1.39943 7.71897 1.39115 7.81644 1.32553 7.87048Z" stroke="#F8F3E9" stroke-width="0.15142"/>
<path d="M3.30765 5.40979H2.52026C2.43664 5.40979 2.36884 5.47758 2.36884 5.56121V8.46847C2.36884 8.5521 2.43664 8.61989 2.52026 8.61989H3.30765C3.39127 8.61989 3.45907 8.5521 3.45907 8.46847V5.56121C3.45907 5.47758 3.39127 5.40979 3.30765 5.40979Z" stroke="#F8F3E9" stroke-width="0.15142"/>
<g filter="url(#filter7_i_2134_2)">
<path d="M10.0642 7.92316C9.51072 8.63546 9.61319 9.4012 9.76513 9.77644C9.78666 9.8296 9.8398 9.86121 9.89715 9.86088L12.3318 9.84689C12.3957 9.84652 12.4524 9.8061 12.4737 9.74587L12.5843 9.43247C12.6057 9.37193 12.6629 9.33145 12.7271 9.33145H14.1039C14.7394 9.33145 15.2547 8.81622 15.2547 8.18066V7.38856C15.2547 7.25736 15.1483 7.151 15.0171 7.151H14.4929C14.3617 7.151 14.2553 7.25736 14.2553 7.38856V8.10495C14.2553 8.18857 14.1875 8.25637 14.1039 8.25637H12.927C12.8856 8.25637 12.8461 8.23945 12.8175 8.20954L12.0034 7.35726C11.9435 7.29453 11.8432 7.29487 11.7837 7.35801L11.251 7.92331C11.1953 7.98248 11.1965 8.07486 11.25 8.13605C11.4645 8.38117 11.6542 8.68657 11.6963 8.90747C11.7448 9.16186 11.666 9.33145 11.4995 9.46773C11.3783 9.55858 11.0785 9.67668 10.7878 9.4223C10.5466 9.21122 10.6779 8.79094 10.8478 8.52997C10.898 8.45287 10.8876 8.34476 10.8128 8.29115L10.2633 7.89716C10.2 7.8518 10.112 7.8617 10.0642 7.92316Z" fill="#4F9A85"/>
</g>
<path d="M10.0642 7.92316C9.51072 8.63546 9.61319 9.4012 9.76513 9.77644C9.78666 9.8296 9.8398 9.86121 9.89715 9.86088L12.3318 9.84689C12.3957 9.84652 12.4524 9.8061 12.4737 9.74587L12.5843 9.43247C12.6057 9.37193 12.6629 9.33145 12.7271 9.33145H14.1039C14.7394 9.33145 15.2547 8.81622 15.2547 8.18066V7.38856C15.2547 7.25736 15.1483 7.151 15.0171 7.151H14.4929C14.3617 7.151 14.2553 7.25736 14.2553 7.38856V8.10495C14.2553 8.18857 14.1875 8.25637 14.1039 8.25637H12.927C12.8856 8.25637 12.8461 8.23945 12.8175 8.20954L12.0034 7.35726C11.9435 7.29453 11.8432 7.29487 11.7837 7.35801L11.251 7.92331C11.1953 7.98248 11.1965 8.07486 11.25 8.13605C11.4645 8.38117 11.6542 8.68657 11.6963 8.90747C11.7448 9.16186 11.666 9.33145 11.4995 9.46773C11.3783 9.55858 11.0785 9.67668 10.7878 9.4223C10.5466 9.21122 10.6779 8.79094 10.8478 8.52997C10.898 8.45287 10.8876 8.34476 10.8128 8.29115L10.2633 7.89716C10.2 7.8518 10.112 7.8617 10.0642 7.92316Z" stroke="#F8F3E9" stroke-width="0.15142"/>
<path d="M11.1125 6.04697C11.0868 6.10331 11.074 6.15249 11.074 6.1945C11.0745 6.23107 11.0831 6.25752 11.0999 6.27383C11.1167 6.29014 11.1459 6.29829 11.1874 6.29829H11.2452C11.2828 6.29829 11.309 6.29557 11.3238 6.29014C11.3391 6.2847 11.347 6.27704 11.3475 6.26715C11.3475 6.2548 11.3376 6.24639 11.3179 6.24195C11.2996 6.2375 11.2684 6.23404 11.2245 6.23157V6.11147H11.4698L11.4765 6.16929L11.4698 6.23157H11.4439C11.4488 6.24293 11.4513 6.25579 11.4513 6.27012C11.4508 6.29681 11.4412 6.32152 11.4224 6.34425C11.4036 6.36699 11.3787 6.38503 11.3475 6.39837C11.3164 6.41172 11.2823 6.41839 11.2452 6.41839H11.1874C11.1424 6.41839 11.1036 6.40851 11.071 6.38874C11.0384 6.36946 11.0134 6.34302 10.9961 6.30941C10.9793 6.2758 10.9707 6.23775 10.9702 6.19524C10.9702 6.16657 10.9754 6.13445 10.9857 6.09886C10.9961 6.06278 11.0087 6.02967 11.0235 5.99952L11.1125 6.04697ZM11.4622 6.11147H11.5193C11.5342 6.11147 11.545 6.1085 11.552 6.10257C11.5589 6.09664 11.5623 6.08675 11.5623 6.07292V5.97654H11.6683V6.07292C11.6683 6.08577 11.6723 6.0954 11.6802 6.10183C11.6881 6.10825 11.698 6.11147 11.7099 6.11147C11.7227 6.11147 11.7331 6.10801 11.741 6.10109C11.7489 6.09417 11.7529 6.08428 11.7529 6.07143L11.7521 5.97654H11.8589L11.8581 6.07292C11.8581 6.08577 11.8616 6.0954 11.8685 6.10183C11.8759 6.10825 11.8856 6.11147 11.8974 6.11147C11.9103 6.11147 11.9212 6.10776 11.93 6.10035C11.9389 6.09293 11.9424 6.08255 11.9404 6.06921C11.933 6.02423 11.9261 5.98519 11.9197 5.95207L12.0198 5.92687C12.0257 5.95207 12.0311 5.97975 12.0361 6.0099C12.0415 6.04005 12.0442 6.06451 12.0442 6.08329C12.0442 6.12481 12.0324 6.1599 12.0086 6.18857C11.9849 6.21723 11.9478 6.23157 11.8974 6.23157C11.8604 6.23157 11.8295 6.21798 11.8048 6.19079C11.7939 6.20265 11.7798 6.21254 11.7625 6.22045C11.7457 6.22786 11.7272 6.23157 11.7069 6.23157C11.6896 6.23157 11.6716 6.22737 11.6528 6.21896C11.634 6.21056 11.6207 6.20117 11.6127 6.19079C11.6048 6.20216 11.592 6.2118 11.5742 6.21971C11.5569 6.22761 11.5369 6.23157 11.5141 6.23157H11.4622V6.11147ZM11.6898 5.79861H11.784V5.89202H11.6898V5.79861ZM11.7632 5.68815H11.8522V5.77711H11.7632V5.68815ZM11.8322 5.79861H11.9256V5.89202H11.8322V5.79861ZM12.2831 5.97654V6.1856C12.2831 6.25826 12.264 6.31509 12.226 6.35612C12.1879 6.39763 12.1336 6.41839 12.0629 6.41839H12.0162V6.29829H12.0629C12.0935 6.29829 12.1168 6.29508 12.1326 6.28865C12.1484 6.28223 12.1595 6.27086 12.1659 6.25455C12.1729 6.23873 12.1763 6.21575 12.1763 6.1856V5.97654H12.2831ZM12.1748 5.78972H12.2816V5.89351H12.1748V5.78972ZM12.4562 6.30496C12.4853 6.30496 12.5071 6.30274 12.5214 6.29829C12.5362 6.29434 12.5466 6.28717 12.5525 6.27679C12.5585 6.26641 12.5619 6.25134 12.5629 6.23157H12.5058C12.4564 6.23157 12.4176 6.21748 12.3894 6.18931C12.3618 6.16064 12.3479 6.12086 12.3479 6.06995C12.3479 6.03288 12.3546 6.00051 12.3679 5.97283C12.3813 5.94466 12.3998 5.92291 12.4235 5.90759C12.4478 5.89227 12.4749 5.88461 12.5051 5.88461C12.5377 5.88461 12.5664 5.89227 12.5911 5.90759C12.6158 5.92291 12.6348 5.94466 12.6482 5.97283C12.662 6.00051 12.6689 6.03288 12.6689 6.06995V6.11147H12.7104L12.7164 6.17226L12.7104 6.23157H12.6682C12.6652 6.28989 12.6467 6.33659 12.6126 6.37168C12.5785 6.40727 12.5263 6.42506 12.4562 6.42506H12.3642V6.30496H12.4562ZM12.4487 6.06328C12.4487 6.08107 12.4532 6.09466 12.4621 6.10405C12.471 6.11295 12.4856 6.1174 12.5058 6.1174H12.5629V6.06698C12.5629 6.01954 12.5436 5.99581 12.5051 5.99581C12.4863 5.99581 12.4722 6.00224 12.4628 6.01509C12.4534 6.02794 12.4487 6.044 12.4487 6.06328ZM12.7032 6.11147H12.7224C12.7308 6.11147 12.7373 6.10924 12.7417 6.10479C12.7467 6.10035 12.7506 6.09244 12.7536 6.08107L12.7706 6.01435C12.782 5.97036 12.801 5.93675 12.8277 5.91352C12.8544 5.89029 12.8863 5.87868 12.9233 5.87868C12.9525 5.87868 12.9789 5.88659 13.0027 5.9024C13.0264 5.91822 13.0449 5.94021 13.0583 5.96838C13.0716 5.99656 13.0783 6.02843 13.0783 6.06402C13.0783 6.10603 13.0711 6.14063 13.0568 6.16781C13.0425 6.1945 13.0247 6.21377 13.0034 6.22564C12.9822 6.2375 12.9604 6.24343 12.9382 6.24343C12.9219 6.24343 12.9041 6.23997 12.8848 6.23305C12.8655 6.22662 12.8388 6.2155 12.8047 6.19969C12.7934 6.20957 12.7805 6.21748 12.7662 6.22341C12.7523 6.22885 12.7383 6.23157 12.7239 6.23157H12.7032V6.11147ZM12.8566 6.0996C12.8803 6.11048 12.8981 6.11789 12.91 6.12185C12.9219 6.1258 12.9327 6.12778 12.9426 6.12778C12.954 6.12778 12.9629 6.12259 12.9693 6.11221C12.9762 6.10183 12.9797 6.08601 12.9797 6.06476C12.9797 6.04153 12.9745 6.02399 12.9641 6.01212C12.9537 5.99977 12.9409 5.99359 12.9256 5.99359C12.9127 5.99359 12.9014 5.99853 12.8915 6.00842C12.8816 6.0183 12.8742 6.03189 12.8692 6.04919L12.8566 6.0996ZM13.1817 5.81863H13.2892V6.23157H13.1817V5.81863ZM13.0697 5.78527C13.0816 5.75116 13.0972 5.7267 13.1164 5.71187C13.1357 5.69655 13.1634 5.68889 13.1995 5.68889H13.3537V5.77044H13.1995C13.1827 5.77044 13.1701 5.77365 13.1617 5.78008C13.1538 5.78601 13.1471 5.79565 13.1416 5.80899L13.0697 5.78527ZM13.838 6.23157C13.7995 6.23157 13.7681 6.22465 13.7439 6.21081C13.7196 6.19648 13.6981 6.17621 13.6794 6.15002L13.6542 6.16114C13.6329 6.17152 13.6171 6.18264 13.6067 6.1945C13.5968 6.20636 13.5919 6.21921 13.5919 6.23305C13.5919 6.25677 13.6008 6.27358 13.6186 6.28346C13.6364 6.29335 13.6628 6.29829 13.6979 6.29829H13.8692V6.41839H13.6979C13.5966 6.41839 13.5321 6.3786 13.5044 6.29903C13.497 6.27827 13.4933 6.25727 13.4933 6.23602C13.4933 6.20043 13.5037 6.16756 13.5244 6.13741C13.5457 6.10677 13.5753 6.08305 13.6134 6.06624L13.6208 6.06328C13.6168 6.05636 13.6129 6.05018 13.6089 6.04474C13.5733 5.9884 13.5514 5.95331 13.543 5.93947L13.5934 5.83865H13.778C13.8002 5.83865 13.8197 5.84458 13.8365 5.85644C13.8538 5.86781 13.8669 5.88288 13.8758 5.90166C13.8852 5.92044 13.8899 5.93996 13.8899 5.96023C13.8899 5.97753 13.8865 5.99384 13.8795 6.00916C13.8726 6.02448 13.8622 6.03758 13.8484 6.04845L13.7817 6.09886C13.7965 6.10727 13.817 6.11147 13.8432 6.11147H13.921L13.9292 6.17152L13.921 6.23157H13.838ZM13.6823 5.98099C13.6972 6.00273 13.7088 6.01954 13.7172 6.0314L13.7891 5.97209C13.795 5.96665 13.798 5.96048 13.798 5.95356C13.798 5.94861 13.796 5.94441 13.7921 5.94095C13.7886 5.937 13.7839 5.93502 13.778 5.93502H13.6994H13.6542L13.6823 5.98099ZM13.9158 6.11147H13.9351C13.9435 6.11147 13.9499 6.10924 13.9544 6.10479C13.9593 6.10035 13.9633 6.09244 13.9663 6.08107L13.9833 6.01435C13.9947 5.97036 14.0137 5.93675 14.0404 5.91352C14.0671 5.89029 14.099 5.87868 14.136 5.87868C14.1652 5.87868 14.1916 5.88659 14.2154 5.9024C14.2391 5.91822 14.2576 5.94021 14.271 5.96838C14.2843 5.99656 14.291 6.02843 14.291 6.06402C14.291 6.07835 14.2922 6.08873 14.2947 6.09516C14.2971 6.10158 14.3016 6.10603 14.308 6.1085C14.3144 6.11048 14.3248 6.11147 14.3392 6.11147H14.351L14.3577 6.16929L14.351 6.23157H14.3392C14.3001 6.23157 14.2692 6.22144 14.2465 6.20117C14.2331 6.2155 14.2181 6.22613 14.2013 6.23305C14.1845 6.23997 14.1677 6.24343 14.1509 6.24343C14.1345 6.24343 14.1167 6.23997 14.0975 6.23305C14.0782 6.22662 14.0515 6.2155 14.0174 6.19969C14.006 6.20957 13.9932 6.21748 13.9789 6.22341C13.965 6.22885 13.9509 6.23157 13.9366 6.23157H13.9158V6.11147ZM14.0693 6.0996C14.093 6.11048 14.1108 6.11789 14.1227 6.12185C14.1345 6.1258 14.1454 6.12778 14.1553 6.12778C14.1667 6.12778 14.1756 6.12259 14.182 6.11221C14.1889 6.10183 14.1924 6.08601 14.1924 6.06476C14.1924 6.04153 14.1872 6.02399 14.1768 6.01212C14.1664 5.99977 14.1536 5.99359 14.1382 5.99359C14.1254 5.99359 14.114 5.99853 14.1041 6.00842C14.0943 6.0183 14.0868 6.03189 14.0819 6.04919L14.0693 6.0996ZM14.5854 5.97654V6.08478C14.5854 6.09516 14.5884 6.10232 14.5943 6.10628C14.6002 6.10974 14.6096 6.11147 14.6225 6.11147H14.6633L14.6677 6.17448L14.6633 6.23157H14.6225C14.6072 6.23157 14.5911 6.22885 14.5743 6.22341C14.558 6.21748 14.5432 6.20908 14.5298 6.19821C14.516 6.20908 14.5002 6.21748 14.4824 6.22341C14.4651 6.22885 14.4475 6.23157 14.4297 6.23157H14.343V6.11147H14.4297C14.4485 6.11147 14.4614 6.10949 14.4683 6.10554C14.4757 6.10158 14.4794 6.09417 14.4794 6.08329V5.97654H14.5854ZM14.3563 5.79565H14.4497V5.88832H14.3563V5.79565ZM14.4972 5.79565H14.5913V5.88832H14.4972V5.79565ZM15.1465 6.23157C15.0853 6.23157 15.0408 6.20735 15.0131 6.15891C14.9686 6.18214 14.9246 6.20018 14.8811 6.21303C14.8376 6.22539 14.7909 6.23157 14.741 6.23157H14.6528V6.11147H14.741C14.786 6.11147 14.8287 6.10652 14.8693 6.09664C14.9098 6.08675 14.9506 6.07168 14.9916 6.05142C14.8893 6.0183 14.831 6.00174 14.8166 6.00174C14.7993 6.00174 14.7857 6.01435 14.7759 6.03955L14.6839 6.01064C14.6953 5.97061 14.7126 5.93972 14.7358 5.91797C14.7591 5.89573 14.786 5.88461 14.8166 5.88461C14.8379 5.88461 14.8715 5.89276 14.9175 5.90907C14.9639 5.92489 15.021 5.94688 15.0887 5.97506L15.1028 6.10554C15.1171 6.10949 15.1307 6.11147 15.1436 6.11147H15.1732L15.1806 6.17003L15.1732 6.23157H15.1465ZM14.8559 6.31015H14.9627V6.41394H14.8559V6.31015ZM15.1625 6.11147H15.1818C15.1902 6.11147 15.1966 6.10924 15.2011 6.10479C15.206 6.10035 15.21 6.09244 15.213 6.08107L15.23 6.01435C15.2414 5.97036 15.2604 5.93675 15.2871 5.91352C15.3138 5.89029 15.3457 5.87868 15.3827 5.87868C15.4119 5.87868 15.4383 5.88659 15.4621 5.9024C15.4858 5.91822 15.5043 5.94021 15.5177 5.96838C15.531 5.99656 15.5377 6.02843 15.5377 6.06402C15.5377 6.10603 15.5305 6.14063 15.5162 6.16781C15.5018 6.1945 15.4841 6.21377 15.4628 6.22564C15.4415 6.2375 15.4198 6.24343 15.3976 6.24343C15.3812 6.24343 15.3635 6.23997 15.3442 6.23305C15.3249 6.22662 15.2982 6.2155 15.2641 6.19969C15.2527 6.20957 15.2399 6.21748 15.2256 6.22341C15.2117 6.22885 15.1976 6.23157 15.1833 6.23157H15.1625V6.11147ZM15.316 6.0996C15.3397 6.11048 15.3575 6.11789 15.3694 6.12185C15.3812 6.1258 15.3921 6.12778 15.402 6.12778C15.4134 6.12778 15.4223 6.12259 15.4287 6.11221C15.4356 6.10183 15.4391 6.08601 15.4391 6.06476C15.4391 6.04153 15.4339 6.02399 15.4235 6.01212C15.4131 5.99977 15.4003 5.99359 15.385 5.99359C15.3721 5.99359 15.3607 5.99853 15.3509 6.00842C15.341 6.0183 15.3336 6.03189 15.3286 6.04919L15.316 6.0996Z" fill="#4F9A85"/>
<path d="M0.772313 9.61951V8.93758H1.04535C1.09552 8.93758 1.13736 8.94502 1.17088 8.95989C1.2044 8.97477 1.22959 8.99541 1.24646 9.02183C1.26333 9.04802 1.27177 9.07821 1.27177 9.11239C1.27177 9.13903 1.26644 9.16245 1.25579 9.18265C1.24513 9.20263 1.23048 9.21906 1.21183 9.23193C1.19341 9.24458 1.17232 9.25357 1.14857 9.2589V9.26556C1.17454 9.26667 1.19885 9.274 1.22149 9.28754C1.24435 9.30108 1.26289 9.32006 1.2771 9.34447C1.2913 9.36867 1.29841 9.39753 1.29841 9.43105C1.29841 9.46723 1.28942 9.49953 1.27143 9.52794C1.25368 9.55613 1.22737 9.57844 1.19252 9.59487C1.15767 9.61129 1.11472 9.61951 1.06366 9.61951H0.772313ZM0.916489 9.50164H1.03403C1.07421 9.50164 1.10351 9.49398 1.12193 9.47866C1.14036 9.46312 1.14957 9.44248 1.14957 9.41673C1.14957 9.39786 1.14502 9.38121 1.13592 9.36678C1.12681 9.35235 1.11383 9.34103 1.09696 9.33282C1.08031 9.32461 1.06044 9.3205 1.03736 9.3205H0.916489V9.50164ZM0.916489 9.22294H1.02337C1.04313 9.22294 1.06066 9.2195 1.07598 9.21262C1.09152 9.20551 1.10373 9.19553 1.11261 9.18265C1.12171 9.16978 1.12626 9.15435 1.12626 9.13637C1.12626 9.11173 1.11749 9.09186 1.09996 9.07677C1.08264 9.06167 1.058 9.05412 1.02604 9.05412H0.916489V9.22294ZM1.66752 9.6295C1.6158 9.6295 1.57107 9.61851 1.53333 9.59653C1.49582 9.57433 1.46685 9.54348 1.44643 9.50397C1.426 9.46423 1.41579 9.41817 1.41579 9.36578C1.41579 9.31295 1.426 9.26678 1.44643 9.22727C1.46685 9.18753 1.49582 9.15668 1.53333 9.1347C1.57107 9.1125 1.6158 9.10141 1.66752 9.10141C1.71924 9.10141 1.76386 9.1125 1.80137 9.1347C1.83911 9.15668 1.86819 9.18753 1.88861 9.22727C1.90903 9.26678 1.91924 9.31295 1.91924 9.36578C1.91924 9.41817 1.90903 9.46423 1.88861 9.50397C1.86819 9.54348 1.83911 9.57433 1.80137 9.59653C1.76386 9.61851 1.71924 9.6295 1.66752 9.6295ZM1.66818 9.51962C1.69171 9.51962 1.71136 9.51296 1.72712 9.49964C1.74288 9.4861 1.75476 9.46767 1.76275 9.44436C1.77096 9.42106 1.77507 9.39453 1.77507 9.36478C1.77507 9.33504 1.77096 9.30851 1.76275 9.28521C1.75476 9.2619 1.74288 9.24347 1.72712 9.22993C1.71136 9.21639 1.69171 9.20962 1.66818 9.20962C1.64443 9.20962 1.62445 9.21639 1.60825 9.22993C1.59227 9.24347 1.58017 9.2619 1.57196 9.28521C1.56397 9.30851 1.55997 9.33504 1.55997 9.36478C1.55997 9.39453 1.56397 9.42106 1.57196 9.44436C1.58017 9.46767 1.59227 9.4861 1.60825 9.49964C1.62445 9.51296 1.64443 9.51962 1.66818 9.51962ZM2.2002 9.32383V9.61951H2.05836V9.10807H2.19354V9.1983H2.19954C2.21086 9.16855 2.22984 9.14502 2.25648 9.12771C2.28311 9.11017 2.31541 9.10141 2.35337 9.10141C2.38889 9.10141 2.41985 9.10918 2.44627 9.12471C2.47268 9.14025 2.49322 9.16245 2.50787 9.19131C2.52252 9.21994 2.52984 9.25413 2.52984 9.29386V9.61951H2.388V9.31917C2.38822 9.28787 2.38023 9.26345 2.36403 9.24591C2.34782 9.22816 2.32551 9.21928 2.2971 9.21928C2.27801 9.21928 2.26114 9.22338 2.24649 9.2316C2.23206 9.23981 2.22074 9.2518 2.21252 9.26756C2.20453 9.2831 2.20043 9.30185 2.2002 9.32383ZM2.68586 9.61951V9.53493L2.93625 9.22494V9.22127H2.69451V9.10807H3.10706V9.2003L2.87199 9.50263V9.5063H3.11572V9.61951H2.68586ZM3.41291 9.32383V9.61951H3.27107V8.93758H3.40892V9.1983H3.41491C3.42645 9.16811 3.4451 9.14447 3.47085 9.12738C3.4966 9.11006 3.5289 9.10141 3.56774 9.10141C3.60326 9.10141 3.63423 9.10918 3.66064 9.12471C3.68728 9.14003 3.70792 9.16212 3.72258 9.19097C3.73745 9.21961 3.74477 9.25391 3.74455 9.29386V9.61951H3.60271V9.31917C3.60293 9.28765 3.59494 9.26312 3.57873 9.24558C3.56275 9.22805 3.54033 9.21928 3.51147 9.21928C3.49216 9.21928 3.47507 9.22338 3.4602 9.2316C3.44554 9.23981 3.434 9.2518 3.42557 9.26756C3.41735 9.2831 3.41314 9.30185 3.41291 9.32383ZM3.90306 9.61951V9.10807H4.04491V9.61951H3.90306ZM3.97432 9.04214C3.95323 9.04214 3.93514 9.03514 3.92004 9.02116C3.90517 9.00695 3.89773 8.98997 3.89773 8.97022C3.89773 8.95068 3.90517 8.93392 3.92004 8.91994C3.93514 8.90573 3.95323 8.89863 3.97432 8.89863C3.99541 8.89863 4.01339 8.90573 4.02826 8.91994C4.04335 8.93392 4.0509 8.95068 4.0509 8.97022C4.0509 8.98997 4.04335 9.00695 4.02826 9.02116C4.01339 9.03514 3.99541 9.04214 3.97432 9.04214ZM4.68223 9.10807L4.50342 9.61951H4.3436L4.16479 9.10807H4.31463L4.42085 9.474H4.42617L4.53206 9.10807H4.68223ZM4.9338 9.62916C4.90117 9.62916 4.87209 9.6235 4.84657 9.61218C4.82104 9.60064 4.80084 9.58366 4.78596 9.56124C4.77131 9.5386 4.76399 9.5104 4.76399 9.47666C4.76399 9.44825 4.76921 9.42439 4.77964 9.40507C4.79007 9.38576 4.80428 9.37022 4.82226 9.35846C4.84024 9.34669 4.86066 9.33781 4.88352 9.33182C4.90661 9.32583 4.93081 9.32161 4.95611 9.31917C4.98586 9.31606 5.00983 9.31317 5.02803 9.31051C5.04624 9.30763 5.05944 9.30341 5.06766 9.29786C5.07587 9.29231 5.07998 9.2841 5.07998 9.27322V9.27122C5.07998 9.25013 5.07332 9.23382 5.06 9.22227C5.0469 9.21073 5.02826 9.20496 5.00406 9.20496C4.97853 9.20496 4.95822 9.21062 4.94313 9.22194C4.92803 9.23304 4.91804 9.24702 4.91316 9.2639L4.78197 9.25324C4.78863 9.22216 4.80173 9.1953 4.82126 9.17266C4.84079 9.1498 4.86599 9.13226 4.89684 9.12005C4.92792 9.10762 4.96388 9.10141 5.00473 9.10141C5.03314 9.10141 5.06033 9.10474 5.0863 9.11139C5.1125 9.11805 5.13569 9.12838 5.15589 9.14236C5.17632 9.15635 5.19241 9.17433 5.20417 9.1963C5.21594 9.21806 5.22182 9.24414 5.22182 9.27455V9.61951H5.0873V9.54858H5.08331C5.07509 9.56457 5.06411 9.57866 5.05034 9.59087C5.03658 9.60286 5.02004 9.61229 5.00073 9.61917C4.98142 9.62583 4.95911 9.62916 4.9338 9.62916ZM4.97443 9.53127C4.99529 9.53127 5.01372 9.52716 5.0297 9.51895C5.04568 9.51051 5.05822 9.49919 5.06732 9.48499C5.07643 9.47078 5.08098 9.45469 5.08098 9.43671V9.38243C5.07654 9.38532 5.07043 9.38798 5.06266 9.39042C5.05512 9.39264 5.04657 9.39475 5.03702 9.39675C5.02748 9.39853 5.01793 9.40019 5.00839 9.40174C4.99884 9.40308 4.99019 9.4043 4.98242 9.40541C4.96577 9.40785 4.95123 9.41173 4.9388 9.41706C4.92637 9.42239 4.91671 9.4296 4.90983 9.4387C4.90295 9.44758 4.89951 9.45868 4.89951 9.472C4.89951 9.49131 4.9065 9.50608 4.92048 9.51629C4.93469 9.52628 4.95267 9.53127 4.97443 9.53127ZM5.37875 9.61951V9.10807H5.51627V9.1973H5.52159C5.53092 9.16556 5.54657 9.14158 5.56854 9.12538C5.59052 9.10895 5.61583 9.10074 5.64446 9.10074C5.65156 9.10074 5.65922 9.10118 5.66744 9.10207C5.67565 9.10296 5.68286 9.10418 5.68908 9.10573V9.2316C5.68242 9.2296 5.67321 9.22782 5.66144 9.22627C5.64968 9.22472 5.63891 9.22394 5.62914 9.22394C5.60828 9.22394 5.58963 9.22849 5.57321 9.23759C5.557 9.24647 5.54413 9.2589 5.53458 9.27488C5.52526 9.29087 5.5206 9.30929 5.5206 9.33016V9.61951H5.37875Z" fill="#4F9A85"/>
<path d="M0.77272 10.2893V10.2178H1.19886V10.2893H1.02706V10.7684H0.94425V10.2893H0.77272ZM1.58637 10.7768C1.54568 10.7768 1.51064 10.7681 1.48125 10.7507C1.45203 10.7331 1.42945 10.7085 1.4135 10.6768C1.39772 10.6448 1.38984 10.6075 1.38984 10.5646C1.38984 10.5223 1.39772 10.4851 1.4135 10.4528C1.42945 10.4205 1.45167 10.3953 1.48017 10.3772C1.50885 10.3591 1.54237 10.3501 1.58072 10.3501C1.60403 10.3501 1.62661 10.3539 1.64848 10.3617C1.67034 10.3694 1.68997 10.3815 1.70736 10.3979C1.72474 10.4144 1.73845 10.4359 1.74849 10.4622C1.75853 10.4884 1.76355 10.5202 1.76355 10.5576V10.5861H1.43527V10.5259H1.68477C1.68477 10.5048 1.68047 10.486 1.67187 10.4697C1.66326 10.4532 1.65116 10.4402 1.63557 10.4307C1.62016 10.4212 1.60205 10.4165 1.58126 10.4165C1.55868 10.4165 1.53896 10.4221 1.52211 10.4332C1.50544 10.4441 1.49254 10.4584 1.4834 10.4762C1.47444 10.4938 1.46996 10.5128 1.46996 10.5335V10.5805C1.46996 10.6081 1.4748 10.6316 1.48447 10.6509C1.49433 10.6703 1.50804 10.6851 1.52561 10.6953C1.54317 10.7053 1.5637 10.7104 1.58718 10.7104C1.60241 10.7104 1.6163 10.7082 1.62885 10.7039C1.6414 10.6994 1.65224 10.6928 1.66138 10.684C1.67052 10.6752 1.67751 10.6644 1.68235 10.6515L1.75844 10.6652C1.75234 10.6876 1.74141 10.7072 1.72564 10.7241C1.71004 10.7407 1.69042 10.7537 1.66676 10.7631C1.64328 10.7722 1.61648 10.7768 1.58637 10.7768ZM2.20839 10.7768C2.16842 10.7768 2.13401 10.7677 2.10515 10.7496C2.07647 10.7313 2.05443 10.7061 2.03901 10.6741C2.0236 10.642 2.01589 10.6052 2.01589 10.5638C2.01589 10.5219 2.02378 10.4849 2.03955 10.4528C2.05532 10.4205 2.07755 10.3953 2.10623 10.3772C2.13491 10.3591 2.16869 10.3501 2.20759 10.3501C2.23895 10.3501 2.26691 10.3559 2.29147 10.3676C2.31603 10.379 2.33583 10.3952 2.35089 10.416C2.36612 10.4368 2.37517 10.461 2.37804 10.4888H2.2998C2.2955 10.4695 2.28565 10.4528 2.27023 10.4388C2.255 10.4248 2.23456 10.4178 2.20893 10.4178C2.18653 10.4178 2.1669 10.4238 2.15005 10.4356C2.13338 10.4472 2.12039 10.4639 2.11107 10.4856C2.10175 10.5071 2.09709 10.5326 2.09709 10.562C2.09709 10.5921 2.10166 10.6181 2.1108 10.6399C2.11994 10.6618 2.13285 10.6787 2.14951 10.6907C2.16636 10.7027 2.18617 10.7087 2.20893 10.7087C2.22417 10.7087 2.23797 10.706 2.25034 10.7004C2.26288 10.6947 2.27337 10.6865 2.28179 10.6759C2.2904 10.6654 2.2964 10.6526 2.2998 10.6378H2.37804C2.37517 10.6645 2.36648 10.6883 2.35196 10.7093C2.33744 10.7303 2.318 10.7467 2.29362 10.7588C2.26942 10.7708 2.24102 10.7768 2.20839 10.7768ZM2.7261 10.5232V10.7684H2.64571V10.2178H2.72503V10.4227H2.73013C2.73981 10.4005 2.7546 10.3828 2.7745 10.3697C2.79439 10.3566 2.82038 10.3501 2.85246 10.3501C2.88078 10.3501 2.90552 10.3559 2.92667 10.3676C2.948 10.3792 2.96449 10.3966 2.97614 10.4197C2.98797 10.4427 2.99388 10.4713 2.99388 10.5058V10.7684H2.91349V10.5154C2.91349 10.4851 2.9057 10.4617 2.8901 10.445C2.87451 10.4282 2.85282 10.4197 2.82504 10.4197C2.80604 10.4197 2.78901 10.4238 2.77396 10.4318C2.75908 10.4399 2.74734 10.4517 2.73874 10.4673C2.73031 10.4827 2.7261 10.5014 2.7261 10.5232ZM3.36325 10.5232V10.7684H3.28286V10.3555H3.36002V10.4227H3.36513C3.37463 10.4008 3.38951 10.3833 3.40976 10.37C3.43019 10.3567 3.45591 10.3501 3.48692 10.3501C3.51506 10.3501 3.53971 10.356 3.56086 10.3678C3.58201 10.3795 3.59841 10.3969 3.61006 10.42C3.62171 10.4431 3.62753 10.4717 3.62753 10.5058V10.7684H3.54715V10.5154C3.54715 10.4855 3.53935 10.4621 3.52375 10.4453C3.50816 10.4282 3.48674 10.4197 3.4595 10.4197C3.44086 10.4197 3.42428 10.4238 3.40976 10.4318C3.39542 10.4399 3.38404 10.4517 3.37561 10.4673C3.36737 10.4827 3.36325 10.5014 3.36325 10.5232ZM3.91705 10.7684V10.3555H3.99744V10.7684H3.91705ZM3.95765 10.2918C3.94367 10.2918 3.93166 10.2871 3.92162 10.2778C3.91176 10.2683 3.90683 10.257 3.90683 10.2439C3.90683 10.2306 3.91176 10.2193 3.92162 10.21C3.93166 10.2005 3.94367 10.1958 3.95765 10.1958C3.97163 10.1958 3.98355 10.2005 3.9934 10.21C4.00344 10.2193 4.00846 10.2306 4.00846 10.2439C4.00846 10.257 4.00344 10.2683 3.9934 10.2778C3.98355 10.2871 3.97163 10.2918 3.95765 10.2918ZM4.46124 10.7768C4.42127 10.7768 4.38685 10.7677 4.358 10.7496C4.32932 10.7313 4.30727 10.7061 4.29186 10.6741C4.27644 10.642 4.26874 10.6052 4.26874 10.5638C4.26874 10.5219 4.27662 10.4849 4.2924 10.4528C4.30817 10.4205 4.33039 10.3953 4.35907 10.3772C4.38775 10.3591 4.42154 10.3501 4.46043 10.3501C4.4918 10.3501 4.51976 10.3559 4.54431 10.3676C4.56887 10.379 4.58868 10.3952 4.60373 10.416C4.61897 10.4368 4.62802 10.461 4.63089 10.4888H4.55265C4.54835 10.4695 4.53849 10.4528 4.52307 10.4388C4.50784 10.4248 4.48741 10.4178 4.46178 10.4178C4.43937 10.4178 4.41974 10.4238 4.4029 10.4356C4.38623 10.4472 4.37323 10.4639 4.36391 10.4856C4.35459 10.5071 4.34993 10.5326 4.34993 10.562C4.34993 10.5921 4.3545 10.6181 4.36364 10.6399C4.37278 10.6618 4.38569 10.6787 4.40236 10.6907C4.41921 10.7027 4.43901 10.7087 4.46178 10.7087C4.47701 10.7087 4.49081 10.706 4.50318 10.7004C4.51573 10.6947 4.52621 10.6865 4.53464 10.6759C4.54324 10.6654 4.54924 10.6526 4.55265 10.6378H4.63089C4.62802 10.6645 4.61933 10.6883 4.60481 10.7093C4.59029 10.7303 4.57084 10.7467 4.54647 10.7588C4.52227 10.7708 4.49386 10.7768 4.46124 10.7768ZM5.01874 10.7776C4.99257 10.7776 4.96891 10.7727 4.94776 10.7631C4.92661 10.7532 4.90985 10.7389 4.89748 10.7203C4.88529 10.7017 4.8792 10.6788 4.8792 10.6517C4.8792 10.6284 4.88368 10.6093 4.89264 10.5942C4.9016 10.5792 4.9137 10.5672 4.92894 10.5585C4.94417 10.5497 4.9612 10.543 4.98002 10.5386C4.99884 10.5341 5.01802 10.5307 5.03756 10.5283C5.06229 10.5255 5.08236 10.5231 5.09778 10.5214C5.11319 10.5194 5.1244 10.5162 5.13139 10.5119C5.13838 10.5076 5.14187 10.5007 5.14187 10.491V10.4891C5.14187 10.4656 5.13524 10.4474 5.12198 10.4345C5.10889 10.4216 5.08936 10.4152 5.06337 10.4152C5.0363 10.4152 5.01497 10.4212 4.99938 10.4332C4.98396 10.445 4.9733 10.4582 4.96738 10.4727L4.89184 10.4555C4.9008 10.4304 4.91388 10.4101 4.93109 10.3947C4.94847 10.3791 4.96846 10.3678 4.99104 10.3608C5.01363 10.3537 5.03738 10.3501 5.06229 10.3501C5.07878 10.3501 5.09626 10.3521 5.11472 10.356C5.13336 10.3598 5.15074 10.3668 5.16688 10.377C5.18319 10.3872 5.19654 10.4018 5.20694 10.4208C5.21733 10.4396 5.22253 10.4641 5.22253 10.4942V10.7684H5.14402V10.712H5.1408C5.1356 10.7224 5.1278 10.7326 5.11741 10.7426C5.10701 10.7527 5.09366 10.761 5.07735 10.7676C5.06104 10.7743 5.0415 10.7776 5.01874 10.7776ZM5.03621 10.713C5.05844 10.713 5.07744 10.7087 5.09321 10.6999C5.10916 10.6911 5.12126 10.6796 5.1295 10.6655C5.13793 10.6511 5.14214 10.6358 5.14214 10.6195V10.5663C5.13927 10.5691 5.13372 10.5718 5.12547 10.5743C5.11741 10.5766 5.10818 10.5787 5.09778 10.5805C5.08738 10.5821 5.07726 10.5836 5.0674 10.5851C5.05754 10.5863 5.0493 10.5874 5.04266 10.5883C5.02707 10.5903 5.01282 10.5936 4.99992 10.5982C4.98719 10.6029 4.97697 10.6096 4.96927 10.6184C4.96174 10.627 4.95797 10.6385 4.95797 10.6528C4.95797 10.6727 4.96532 10.6878 4.98002 10.698C4.99472 10.708 5.01345 10.713 5.03621 10.713ZM5.59169 10.2178V10.7684H5.5113V10.2178H5.59169ZM6.42385 10.7762C6.38693 10.7762 6.35511 10.7695 6.32841 10.7561C6.30188 10.7426 6.28145 10.7243 6.26711 10.7012C6.25277 10.6779 6.2456 10.6516 6.2456 10.6222C6.2456 10.5998 6.25026 10.5799 6.25958 10.5625C6.2689 10.5449 6.2819 10.5287 6.29856 10.5138C6.31523 10.4989 6.3345 10.484 6.35637 10.4689L6.44509 10.4063C6.46015 10.3964 6.47189 10.386 6.48031 10.3751C6.48874 10.364 6.49295 10.3503 6.49295 10.334C6.49295 10.3211 6.48739 10.3087 6.47628 10.2969C6.46517 10.285 6.45029 10.2791 6.43165 10.2791C6.41874 10.2791 6.40736 10.2823 6.3975 10.2885C6.38782 10.2948 6.38021 10.3029 6.37465 10.3127C6.36927 10.3224 6.36658 10.3326 6.36658 10.3434C6.36658 10.3559 6.36999 10.3686 6.3768 10.3813C6.38379 10.394 6.39275 10.4072 6.40369 10.4208C6.41462 10.4342 6.42609 10.4482 6.4381 10.4627L6.69378 10.7684H6.60291L6.39132 10.5197C6.37358 10.4988 6.35709 10.4791 6.34185 10.4606C6.32661 10.442 6.31425 10.4231 6.30475 10.4041C6.29543 10.385 6.29077 10.3643 6.29077 10.342C6.29077 10.3168 6.2965 10.2943 6.30797 10.2748C6.31962 10.2551 6.33585 10.2397 6.35664 10.2286C6.37743 10.2175 6.40181 10.2119 6.42977 10.2119C6.45809 10.2119 6.48237 10.2175 6.50263 10.2286C6.52306 10.2395 6.53874 10.2541 6.54968 10.2724C6.56079 10.2905 6.56635 10.3103 6.56635 10.3318C6.56635 10.358 6.5598 10.3811 6.54672 10.4012C6.53381 10.4211 6.51598 10.4394 6.49322 10.456L6.38272 10.5375C6.36121 10.5533 6.34624 10.5689 6.33782 10.5843C6.32957 10.5995 6.32545 10.6114 6.32545 10.62C6.32545 10.6358 6.32948 10.6504 6.33755 10.6638C6.34579 10.6773 6.35726 10.688 6.37196 10.6961C6.38684 10.7042 6.40422 10.7082 6.42412 10.7082C6.44455 10.7082 6.46445 10.7038 6.48381 10.695C6.50334 10.6861 6.521 10.6733 6.53677 10.6566C6.55272 10.6399 6.56536 10.6199 6.57468 10.5966C6.584 10.5733 6.58866 10.5473 6.58866 10.5184H6.66125C6.66125 10.5539 6.65722 10.5839 6.64915 10.6085C6.64109 10.6328 6.63132 10.6527 6.61985 10.6681C6.60856 10.6834 6.59789 10.6953 6.58785 10.7039C6.58463 10.7068 6.58158 10.7096 6.57871 10.7125C6.57584 10.7154 6.5728 10.7182 6.56957 10.7211C6.55093 10.7399 6.52835 10.7538 6.50182 10.7628C6.47547 10.7717 6.44948 10.7762 6.42385 10.7762ZM7.37511 10.2178L7.52836 10.6663H7.53454L7.68779 10.2178H7.77759L7.57944 10.7684H7.48346L7.28532 10.2178H7.37511ZM8.1649 10.7768C8.12619 10.7768 8.0924 10.7679 8.06354 10.7502C8.03469 10.7324 8.01228 10.7076 7.99633 10.6757C7.98038 10.6438 7.9724 10.6065 7.9724 10.5638C7.9724 10.521 7.98038 10.4835 7.99633 10.4515C8.01228 10.4194 8.03469 10.3945 8.06354 10.3767C8.0924 10.359 8.12619 10.3501 8.1649 10.3501C8.20362 10.3501 8.2374 10.359 8.26626 10.3767C8.29512 10.3945 8.31752 10.4194 8.33348 10.4515C8.34943 10.4835 8.3574 10.521 8.3574 10.5638C8.3574 10.6065 8.34943 10.6438 8.33348 10.6757C8.31752 10.7076 8.29512 10.7324 8.26626 10.7502C8.2374 10.7679 8.20362 10.7768 8.1649 10.7768ZM8.16517 10.7093C8.19026 10.7093 8.21106 10.7027 8.22755 10.6894C8.24404 10.6761 8.25622 10.6585 8.26411 10.6364C8.27218 10.6144 8.27621 10.5901 8.27621 10.5636C8.27621 10.5372 8.27218 10.513 8.26411 10.491C8.25622 10.4687 8.24404 10.4509 8.22755 10.4375C8.21106 10.424 8.19026 10.4173 8.16517 10.4173C8.1399 10.4173 8.11893 10.424 8.10226 10.4375C8.08577 10.4509 8.07349 10.4687 8.06543 10.491C8.05754 10.513 8.0536 10.5372 8.0536 10.5636C8.0536 10.5901 8.05754 10.6144 8.06543 10.6364C8.07349 10.6585 8.08577 10.6761 8.10226 10.6894C8.11893 10.7027 8.1399 10.7093 8.16517 10.7093ZM8.80279 10.7768C8.76282 10.7768 8.72841 10.7677 8.69955 10.7496C8.67087 10.7313 8.64882 10.7061 8.63341 10.6741C8.61799 10.642 8.61029 10.6052 8.61029 10.5638C8.61029 10.5219 8.61817 10.4849 8.63395 10.4528C8.64972 10.4205 8.67195 10.3953 8.70062 10.3772C8.7293 10.3591 8.76309 10.3501 8.80198 10.3501C8.83335 10.3501 8.86131 10.3559 8.88587 10.3676C8.91042 10.379 8.93023 10.3952 8.94528 10.416C8.96052 10.4368 8.96957 10.461 8.97244 10.4888H8.8942C8.8899 10.4695 8.88004 10.4528 8.86463 10.4388C8.84939 10.4248 8.82896 10.4178 8.80333 10.4178C8.78092 10.4178 8.7613 10.4238 8.74445 10.4356C8.72778 10.4472 8.71478 10.4639 8.70546 10.4856C8.69614 10.5071 8.69148 10.5326 8.69148 10.562C8.69148 10.5921 8.69605 10.6181 8.70519 10.6399C8.71434 10.6618 8.72724 10.6787 8.74391 10.6907C8.76076 10.7027 8.78056 10.7087 8.80333 10.7087C8.81856 10.7087 8.83236 10.706 8.84473 10.7004C8.85728 10.6947 8.86776 10.6865 8.87619 10.6759C8.88479 10.6654 8.89079 10.6526 8.8942 10.6378H8.97244C8.96957 10.6645 8.96088 10.6883 8.94636 10.7093C8.93184 10.7303 8.91239 10.7467 8.88802 10.7588C8.86382 10.7708 8.83541 10.7768 8.80279 10.7768ZM9.36029 10.7776C9.33412 10.7776 9.31046 10.7727 9.28931 10.7631C9.26816 10.7532 9.2514 10.7389 9.23903 10.7203C9.22684 10.7017 9.22075 10.6788 9.22075 10.6517C9.22075 10.6284 9.22523 10.6093 9.23419 10.5942C9.24315 10.5792 9.25525 10.5672 9.27049 10.5585C9.28572 10.5497 9.30275 10.543 9.32157 10.5386C9.34039 10.5341 9.35957 10.5307 9.37911 10.5283C9.40384 10.5255 9.42392 10.5231 9.43933 10.5214C9.45474 10.5194 9.46595 10.5162 9.47294 10.5119C9.47993 10.5076 9.48342 10.5007 9.48342 10.491V10.4891C9.48342 10.4656 9.47679 10.4474 9.46353 10.4345C9.45044 10.4216 9.43091 10.4152 9.40492 10.4152C9.37785 10.4152 9.35652 10.4212 9.34093 10.4332C9.32551 10.445 9.31485 10.4582 9.30893 10.4727L9.23339 10.4555C9.24235 10.4304 9.25543 10.4101 9.27264 10.3947C9.29003 10.3791 9.31001 10.3678 9.33259 10.3608C9.35518 10.3537 9.37893 10.3501 9.40384 10.3501C9.42033 10.3501 9.43781 10.3521 9.45627 10.356C9.47491 10.3598 9.49229 10.3668 9.50843 10.377C9.52474 10.3872 9.53809 10.4018 9.54849 10.4208C9.55888 10.4396 9.56408 10.4641 9.56408 10.4942V10.7684H9.48557V10.712H9.48235C9.47715 10.7224 9.46935 10.7326 9.45896 10.7426C9.44856 10.7527 9.43521 10.761 9.4189 10.7676C9.40259 10.7743 9.38305 10.7776 9.36029 10.7776ZM9.37776 10.713C9.39999 10.713 9.41899 10.7087 9.43476 10.6999C9.45071 10.6911 9.46281 10.6796 9.47106 10.6655C9.47948 10.6511 9.48369 10.6358 9.48369 10.6195V10.5663C9.48082 10.5691 9.47527 10.5718 9.46702 10.5743C9.45896 10.5766 9.44973 10.5787 9.43933 10.5805C9.42893 10.5821 9.41881 10.5836 9.40895 10.5851C9.39909 10.5863 9.39085 10.5874 9.38421 10.5883C9.36862 10.5903 9.35437 10.5936 9.34147 10.5982C9.32874 10.6029 9.31852 10.6096 9.31082 10.6184C9.30329 10.627 9.29952 10.6385 9.29952 10.6528C9.29952 10.6727 9.30687 10.6878 9.32157 10.698C9.33627 10.708 9.355 10.713 9.37776 10.713ZM10.0456 10.3555V10.42H9.82006V10.3555H10.0456ZM9.88055 10.2565H9.96094V10.6472C9.96094 10.6628 9.96327 10.6745 9.96793 10.6824C9.97259 10.6901 9.97859 10.6954 9.98594 10.6983C9.99347 10.7009 10.0016 10.7023 10.0104 10.7023C10.0169 10.7023 10.0225 10.7018 10.0273 10.7009C10.0322 10.7001 10.0359 10.6993 10.0386 10.6988L10.0532 10.7652C10.0485 10.767 10.0419 10.7688 10.0333 10.7706C10.0247 10.7726 10.0139 10.7736 10.001 10.7738C9.97985 10.7742 9.96013 10.7704 9.94185 10.7625C9.92357 10.7546 9.90878 10.7424 9.89749 10.726C9.88619 10.7095 9.88055 10.6888 9.88055 10.6638V10.2565ZM10.3163 10.7684V10.3555H10.3966V10.7684H10.3163ZM10.3569 10.2918C10.3429 10.2918 10.3309 10.2871 10.3208 10.2778C10.311 10.2683 10.306 10.257 10.306 10.2439C10.306 10.2306 10.311 10.2193 10.3208 10.21C10.3309 10.2005 10.3429 10.1958 10.3569 10.1958C10.3708 10.1958 10.3828 10.2005 10.3926 10.21C10.4026 10.2193 10.4077 10.2306 10.4077 10.2439C10.4077 10.257 10.4026 10.2683 10.3926 10.2778C10.3828 10.2871 10.3708 10.2918 10.3569 10.2918ZM10.8604 10.7768C10.8217 10.7768 10.7879 10.7679 10.7591 10.7502C10.7302 10.7324 10.7078 10.7076 10.6919 10.6757C10.6759 10.6438 10.6679 10.6065 10.6679 10.5638C10.6679 10.521 10.6759 10.4835 10.6919 10.4515C10.7078 10.4194 10.7302 10.3945 10.7591 10.3767C10.7879 10.359 10.8217 10.3501 10.8604 10.3501C10.8992 10.3501 10.9329 10.359 10.9618 10.3767C10.9907 10.3945 11.0131 10.4194 11.029 10.4515C11.045 10.4835 11.0529 10.521 11.0529 10.5638C11.0529 10.6065 11.045 10.6438 11.029 10.6757C11.0131 10.7076 10.9907 10.7324 10.9618 10.7502C10.9329 10.7679 10.8992 10.7768 10.8604 10.7768ZM10.8607 10.7093C10.8858 10.7093 10.9066 10.7027 10.9231 10.6894C10.9396 10.6761 10.9518 10.6585 10.9597 10.6364C10.9677 10.6144 10.9717 10.5901 10.9717 10.5636C10.9717 10.5372 10.9677 10.513 10.9597 10.491C10.9518 10.4687 10.9396 10.4509 10.9231 10.4375C10.9066 10.424 10.8858 10.4173 10.8607 10.4173C10.8354 10.4173 10.8145 10.424 10.7978 10.4375C10.7813 10.4509 10.769 10.4687 10.761 10.491C10.7531 10.513 10.7491 10.5372 10.7491 10.5636C10.7491 10.5901 10.7531 10.6144 10.761 10.6364C10.769 10.6585 10.7813 10.6761 10.7978 10.6894C10.8145 10.7027 10.8354 10.7093 10.8607 10.7093ZM11.4048 10.5232V10.7684H11.3244V10.3555H11.4015V10.4227H11.4066C11.4161 10.4008 11.431 10.3833 11.4513 10.37C11.4717 10.3567 11.4974 10.3501 11.5284 10.3501C11.5566 10.3501 11.5812 10.356 11.6024 10.3678C11.6235 10.3795 11.6399 10.3969 11.6516 10.42C11.6632 10.4431 11.6691 10.4717 11.6691 10.5058V10.7684H11.5887V10.5154C11.5887 10.4855 11.5809 10.4621 11.5653 10.4453C11.5497 10.4282 11.5283 10.4197 11.501 10.4197C11.4824 10.4197 11.4658 10.4238 11.4513 10.4318C11.4369 10.4399 11.4256 10.4517 11.4171 10.4673C11.4089 10.4827 11.4048 10.5014 11.4048 10.5232ZM12.0787 10.7776C12.0526 10.7776 12.0289 10.7727 12.0078 10.7631C11.9866 10.7532 11.9699 10.7389 11.9575 10.7203C11.9453 10.7017 11.9392 10.6788 11.9392 10.6517C11.9392 10.6284 11.9437 10.6093 11.9527 10.5942C11.9616 10.5792 11.9737 10.5672 11.9889 10.5585C12.0042 10.5497 12.0212 10.543 12.04 10.5386C12.0589 10.5341 12.078 10.5307 12.0976 10.5283C12.1223 10.5255 12.1424 10.5231 12.1578 10.5214C12.1732 10.5194 12.1844 10.5162 12.1914 10.5119C12.1984 10.5076 12.2019 10.5007 12.2019 10.491V10.4891C12.2019 10.4656 12.1953 10.4474 12.182 10.4345C12.1689 10.4216 12.1494 10.4152 12.1234 10.4152C12.0963 10.4152 12.075 10.4212 12.0594 10.4332C12.044 10.445 12.0333 10.4582 12.0274 10.4727L11.9518 10.4555C11.9608 10.4304 11.9739 10.4101 11.9911 10.3947C12.0085 10.3791 12.0285 10.3678 12.0511 10.3608C12.0736 10.3537 12.0974 10.3501 12.1223 10.3501C12.1388 10.3501 12.1563 10.3521 12.1747 10.356C12.1934 10.3598 12.2108 10.3668 12.2269 10.377C12.2432 10.3872 12.2566 10.4018 12.2669 10.4208C12.2773 10.4396 12.2825 10.4641 12.2825 10.4942V10.7684H12.204V10.712H12.2008C12.1956 10.7224 12.1878 10.7326 12.1774 10.7426C12.167 10.7527 12.1537 10.761 12.1374 10.7676C12.121 10.7743 12.1015 10.7776 12.0787 10.7776ZM12.0962 10.713C12.1184 10.713 12.1374 10.7087 12.1532 10.6999C12.1692 10.6911 12.1813 10.6796 12.1895 10.6655C12.1979 10.6511 12.2022 10.6358 12.2022 10.6195V10.5663C12.1993 10.5691 12.1937 10.5718 12.1855 10.5743C12.1774 10.5766 12.1682 10.5787 12.1578 10.5805C12.1474 10.5821 12.1373 10.5836 12.1274 10.5851C12.1176 10.5863 12.1093 10.5874 12.1027 10.5883C12.0871 10.5903 12.0728 10.5936 12.0599 10.5982C12.0472 10.6029 12.037 10.6096 12.0293 10.6184C12.0217 10.627 12.018 10.6385 12.018 10.6528C12.018 10.6727 12.0253 10.6878 12.04 10.698C12.0547 10.708 12.0735 10.713 12.0962 10.713ZM12.6517 10.2178V10.7684H12.5713V10.2178H12.6517Z" fill="#4F9A85"/>
<defs>
<filter id="filter0_i_2134_2" x="7.51245" y="7.68591" width="2.08887" height="2.55841" filterUnits="userSpaceOnUse" color-interpolation-filters="sRGB">
<feFlood flood-opacity="0" result="BackgroundImageFix"/>
<feBlend mode="normal" in="SourceGraphic" in2="BackgroundImageFix" result="shape"/>
<feColorMatrix in="SourceAlpha" type="matrix" values="0 0 0 0 0 0 0 0 0 0 0 0 0 0 0 0 0 0 127 0" result="hardAlpha"/>
<feOffset dy="0.322327"/>
<feGaussianBlur stdDeviation="0.161164"/>
<feComposite in2="hardAlpha" operator="arithmetic" k2="-1" k3="1"/>
<feColorMatrix type="matrix" values="0 0 0 0 0 0 0 0 0 0 0 0 0 0 0 0 0 0 0.25 0"/>
<feBlend mode="normal" in2="shape" result="effect1_innerShadow_2134_2"/>
</filter>
<filter id="filter1_i_2134_2" x="7.83179" y="6.30457" width="3.8916" height="1.92682" filterUnits="userSpaceOnUse" color-interpolation-filters="sRGB">
<feFlood flood-opacity="0" result="BackgroundImageFix"/>
<feBlend mode="normal" in="SourceGraphic" in2="BackgroundImageFix" result="shape"/>
<feColorMatrix in="SourceAlpha" type="matrix" values="0 0 0 0 0 0 0 0 0 0 0 0 0 0 0 0 0 0 127 0" result="hardAlpha"/>
<feOffset dy="0.322327"/>
<feGaussianBlur stdDeviation="0.161164"/>
<feComposite in2="hardAlpha" operator="arithmetic" k2="-1" k3="1"/>
<feColorMatrix type="matrix" values="0 0 0 0 0 0 0 0 0 0 0 0 0 0 0 0 0 0 0.25 0"/>
<feBlend mode="normal" in2="shape" result="effect1_innerShadow_2134_2"/>
</filter>
<filter id="filter2_i_2134_2" x="3.28857" y="5.5116" width="5.07617" height="3.50629" filterUnits="userSpaceOnUse" color-interpolation-filters="sRGB">
<feFlood flood-opacity="0" result="BackgroundImageFix"/>
<feBlend mode="normal" in="SourceGraphic" in2="BackgroundImageFix" result="shape"/>
<feColorMatrix in="SourceAlpha" type="matrix" values="0 0 0 0 0 0 0 0 0 0 0 0 0 0 0 0 0 0 127 0" result="hardAlpha"/>
<feOffset dy="0.322327"/>
<feGaussianBlur stdDeviation="0.161164"/>
<feComposite in2="hardAlpha" operator="arithmetic" k2="-1" k3="1"/>
<feColorMatrix type="matrix" values="0 0 0 0 0 0 0 0 0 0 0 0 0 0 0 0 0 0 0.25 0"/>
<feBlend mode="normal" in2="shape" result="effect1_innerShadow_2134_2"/>
</filter>
<filter id="filter3_i_2134_2" x="8.82983" y="5.5481" width="0.902344" height="1.22467" filterUnits="userSpaceOnUse" color-interpolation-filters="sRGB">
<feFlood flood-opacity="0" result="BackgroundImageFix"/>
<feBlend mode="normal" in="SourceGraphic" in2="BackgroundImageFix" result="shape"/>
<feColorMatrix in="SourceAlpha" type="matrix" values="0 0 0 0 0 0 0 0 0 0 0 0 0 0 0 0 0 0 127 0" result="hardAlpha"/>
<feOffset dy="0.322327"/>
<feGaussianBlur stdDeviation="0.161164"/>
<feComposite in2="hardAlpha" operator="arithmetic" k2="-1" k3="1"/>
<feColorMatrix type="matrix" values="0 0 0 0 0 0 0 0 0 0 0 0 0 0 0 0 0 0 0.25 0"/>
<feBlend mode="normal" in2="shape" result="effect1_innerShadow_2134_2"/>
</filter>
<filter id="filter4_i_2134_2" x="6.14111" y="8.45532" width="0.902344" height="1.22467" filterUnits="userSpaceOnUse" color-interpolation-filters="sRGB">
<feFlood flood-opacity="0" result="BackgroundImageFix"/>
<feBlend mode="normal" in="SourceGraphic" in2="BackgroundImageFix" result="shape"/>
<feColorMatrix in="SourceAlpha" type="matrix" values="0 0 0 0 0 0 0 0 0 0 0 0 0 0 0 0 0 0 127 0" result="hardAlpha"/>
<feOffset dy="0.322327"/>
<feGaussianBlur stdDeviation="0.161164"/>
<feComposite in2="hardAlpha" operator="arithmetic" k2="-1" k3="1"/>
<feColorMatrix type="matrix" values="0 0 0 0 0 0 0 0 0 0 0 0 0 0 0 0 0 0 0.25 0"/>
<feBlend mode="normal" in2="shape" result="effect1_innerShadow_2134_2"/>
</filter>
<filter id="filter5_i_2134_2" x="6.98901" y="8.45532" width="0.902344" height="1.22467" filterUnits="userSpaceOnUse" color-interpolation-filters="sRGB">
<feFlood flood-opacity="0" result="BackgroundImageFix"/>
<feBlend mode="normal" in="SourceGraphic" in2="BackgroundImageFix" result="shape"/>
<feColorMatrix in="SourceAlpha" type="matrix" values="0 0 0 0 0 0 0 0 0 0 0 0 0 0 0 0 0 0 127 0" result="hardAlpha"/>
<feOffset dy="0.322327"/>
<feGaussianBlur stdDeviation="0.161164"/>
<feComposite in2="hardAlpha" operator="arithmetic" k2="-1" k3="1"/>
<feColorMatrix type="matrix" values="0 0 0 0 0 0 0 0 0 0 0 0 0 0 0 0 0 0 0.25 0"/>
<feBlend mode="normal" in2="shape" result="effect1_innerShadow_2134_2"/>
</filter>
<filter id="filter6_i_2134_2" x="0.610107" y="5.33411" width="2.92456" height="3.68378" filterUnits="userSpaceOnUse" color-interpolation-filters="sRGB">
<feFlood flood-opacity="0" result="BackgroundImageFix"/>
<feBlend mode="normal" in="SourceGraphic" in2="BackgroundImageFix" result="shape"/>
<feColorMatrix in="SourceAlpha" type="matrix" values="0 0 0 0 0 0 0 0 0 0 0 0 0 0 0 0 0 0 127 0" result="hardAlpha"/>
<feOffset dy="0.322327"/>
<feGaussianBlur stdDeviation="0.161164"/>
<feComposite in2="hardAlpha" operator="arithmetic" k2="-1" k3="1"/>
<feColorMatrix type="matrix" values="0 0 0 0 0 0 0 0 0 0 0 0 0 0 0 0 0 0 0.25 0"/>
<feBlend mode="normal" in2="shape" result="effect1_innerShadow_2134_2"/>
</filter>
<filter id="filter7_i_2134_2" x="9.56909" y="7.07532" width="5.76123" height="3.18366" filterUnits="userSpaceOnUse" color-interpolation-filters="sRGB">
<feFlood flood-opacity="0" result="BackgroundImageFix"/>
<feBlend mode="normal" in="SourceGraphic" in2="BackgroundImageFix" result="shape"/>
<feColorMatrix in="SourceAlpha" type="matrix" values="0 0 0 0 0 0 0 0 0 0 0 0 0 0 0 0 0 0 127 0" result="hardAlpha"/>
<feOffset dy="0.322327"/>
<feGaussianBlur stdDeviation="0.161164"/>
<feComposite in2="hardAlpha" operator="arithmetic" k2="-1" k3="1"/>
<feColorMatrix type="matrix" values="0 0 0 0 0 0 0 0 0 0 0 0 0 0 0 0 0 0 0.25 0"/>
<feBlend mode="normal" in2="shape" result="effect1_innerShadow_2134_2"/>
</filter>
</defs>
</svg>
