<?xml version="1.0" encoding="UTF-8"?>
<svg width="32" height="32" viewBox="0 0 32 32" fill="none" xmlns="http://www.w3.org/2000/svg">
  <path d="M0 0H1V32H0V0Z" fill="currentColor" fill-opacity="0.1"/>
  <path d="M8 0H9V32H8V0Z" fill="currentColor" fill-opacity="0.1"/>
  <path d="M16 0H17V32H16V0Z" fill="currentColor" fill-opacity="0.1"/>
  <path d="M24 0H25V32H24V0Z" fill="currentColor" fill-opacity="0.1"/>
  <path d="M32 0H31V32H32V0Z" fill="currentColor" fill-opacity="0.1"/>
  <path d="M0 0V1H32V0H0Z" fill="currentColor" fill-opacity="0.1"/>
  <path d="M0 8V9H32V8H0Z" fill="currentColor" fill-opacity="0.1"/>
  <path d="M0 16V17H32V16H0Z" fill="currentColor" fill-opacity="0.1"/>
  <path d="M0 24V25H32V24H0Z" fill="currentColor" fill-opacity="0.1"/>
  <path d="M0 31V32H32V31H0Z" fill="currentColor" fill-opacity="0.1"/>
</svg>
